<svg xmlns="http://www.w3.org/2000/svg" xmlns:xlink="http://www.w3.org/1999/xlink" contentStyleType="text/css" data-diagram-type="SEQUENCE" height="341px" preserveAspectRatio="none" style="width:528px;height:341px;background:#FFFFFF;" version="1.1" viewBox="0 0 528 341" width="528px" zoomAndPan="magnify"><defs/><g><rect fill="#FFFFFF" height="228.7344" style="stroke:#181818;stroke-width:1;" width="10" x="296.7134" y="67.4297"/><rect fill="#FFFFFF" height="29.1328" style="stroke:#181818;stroke-width:1;" width="10" x="466.2061" y="96.5625"/><rect fill="#FFFFFF" height="29.1328" style="stroke:#181818;stroke-width:1;" width="10" x="466.2061" y="178.9609"/><rect fill="#90EE90" height="148.4688" style="stroke:#000000;stroke-width:1.5;" width="511.6064" x="10" y="140.6953"/><rect fill="#FFC0CB" height="43.9375" style="stroke:none;stroke-width:1;" width="511.6064" x="10" y="245.2266"/><line style="stroke:#181818;stroke-width:0.5;stroke-dasharray:5.0,5.0;" x1="55" x2="55" y1="36.2969" y2="306.1641"/><line style="stroke:#181818;stroke-width:0.5;stroke-dasharray:5.0,5.0;" x1="301.6392" x2="301.6392" y1="36.2969" y2="306.1641"/><line style="stroke:#181818;stroke-width:0.5;stroke-dasharray:5.0,5.0;" x1="470.8057" x2="470.8057" y1="36.2969" y2="306.1641"/><rect fill="#E2E2F0" height="30.2969" rx="2.5" ry="2.5" style="stroke:#181818;stroke-width:0.5;" width="71.4971" x="20" y="5"/><text fill="#000000" font-family="sans-serif" font-size="14" lengthAdjust="spacing" textLength="57.4971" x="27" y="24.9951">Request</text><rect fill="#E2E2F0" height="30.2969" rx="2.5" ry="2.5" style="stroke:#181818;stroke-width:0.5;" width="71.4971" x="20" y="305.1641"/><text fill="#000000" font-family="sans-serif" font-size="14" lengthAdjust="spacing" textLength="57.4971" x="27" y="325.1592">Request</text><rect fill="#E2E2F0" height="30.2969" rx="2.5" ry="2.5" style="stroke:#181818;stroke-width:0.5;" width="36.1484" x="283.6392" y="5"/><text fill="#000000" font-family="sans-serif" font-size="14" lengthAdjust="spacing" textLength="22.1484" x="290.6392" y="24.9951">API</text><rect fill="#E2E2F0" height="30.2969" rx="2.5" ry="2.5" style="stroke:#181818;stroke-width:0.5;" width="36.1484" x="283.6392" y="305.1641"/><text fill="#000000" font-family="sans-serif" font-size="14" lengthAdjust="spacing" textLength="22.1484" x="290.6392" y="325.1592">API</text><rect fill="#E2E2F0" height="30.2969" rx="2.5" ry="2.5" style="stroke:#181818;stroke-width:0.5;" width="80.8008" x="430.8057" y="5"/><text fill="#000000" font-family="sans-serif" font-size="14" lengthAdjust="spacing" textLength="66.8008" x="437.8057" y="24.9951">Database</text><rect fill="#E2E2F0" height="30.2969" rx="2.5" ry="2.5" style="stroke:#181818;stroke-width:0.5;" width="80.8008" x="430.8057" y="305.1641"/><text fill="#000000" font-family="sans-serif" font-size="14" lengthAdjust="spacing" textLength="66.8008" x="437.8057" y="325.1592">Database</text><rect fill="#FFFFFF" height="228.7344" style="stroke:#181818;stroke-width:1;" width="10" x="296.7134" y="67.4297"/><rect fill="#FFFFFF" height="29.1328" style="stroke:#181818;stroke-width:1;" width="10" x="466.2061" y="96.5625"/><rect fill="#FFFFFF" height="29.1328" style="stroke:#181818;stroke-width:1;" width="10" x="466.2061" y="178.9609"/><polygon fill="#181818" points="284.7134,63.4297,294.7134,67.4297,284.7134,71.4297,288.7134,67.4297" style="stroke:#181818;stroke-width:1;"/><line style="stroke:#181818;stroke-width:1;" x1="55.7485" x2="290.7134" y1="67.4297" y2="67.4297"/><text fill="#000000" font-family="sans-serif" font-size="13" lengthAdjust="spacing" textLength="221.9648" x="62.7485" y="62.3638">API Request to postpone payment</text><polygon fill="#181818" points="454.2061,92.5625,464.2061,96.5625,454.2061,100.5625,458.2061,96.5625" style="stroke:#181818;stroke-width:1;"/><line style="stroke:#181818;stroke-width:1;" x1="306.7134" x2="460.2061" y1="96.5625" y2="96.5625"/><text fill="#000000" font-family="sans-serif" font-size="13" lengthAdjust="spacing" textLength="125.2139" x="313.7134" y="91.4966">Check if postponed</text><polygon fill="#181818" points="317.7134,121.6953,307.7134,125.6953,317.7134,129.6953,313.7134,125.6953" style="stroke:#181818;stroke-width:1;"/><line style="stroke:#181818;stroke-width:1;" x1="311.7134" x2="470.2061" y1="125.6953" y2="125.6953"/><text fill="#000000" font-family="sans-serif" font-size="13" lengthAdjust="spacing" textLength="95.6782" x="323.7134" y="120.6294">Not postponed</text><path d="M10,140.6953 L74.4429,140.6953 L74.4429,147.8281 L64.4429,157.8281 L10,157.8281 L10,140.6953 " fill="#FFD700" style="stroke:#000000;stroke-width:1.5;"/><rect fill="none" height="148.4688" style="stroke:#000000;stroke-width:1.5;" width="511.6064" x="10" y="140.6953"/><text fill="#000000" font-family="sans-serif" font-size="13" font-weight="bold" lengthAdjust="spacing" textLength="19.4429" x="25" y="153.7622">alt</text><text fill="#000000" font-family="sans-serif" font-size="11" font-weight="bold" lengthAdjust="spacing" textLength="125.458" x="89.4429" y="152.9058">[Not yet postponed]</text><polygon fill="#181818" points="454.2061,174.9609,464.2061,178.9609,454.2061,182.9609,458.2061,178.9609" style="stroke:#181818;stroke-width:1;"/><line style="stroke:#181818;stroke-width:1;" x1="306.7134" x2="460.2061" y1="178.9609" y2="178.9609"/><text fill="#000000" font-family="sans-serif" font-size="13" lengthAdjust="spacing" textLength="140.4927" x="313.7134" y="173.895">Postpone in database</text><polygon fill="#181818" points="317.7134,204.0938,307.7134,208.0938,317.7134,212.0938,313.7134,208.0938" style="stroke:#181818;stroke-width:1;"/><line style="stroke:#181818;stroke-width:1;" x1="311.7134" x2="470.2061" y1="208.0938" y2="208.0938"/><text fill="#000000" font-family="sans-serif" font-size="13" lengthAdjust="spacing" textLength="68.3579" x="323.7134" y="203.0278">Postponed</text><polygon fill="#181818" points="66.7485,233.2266,56.7485,237.2266,66.7485,241.2266,62.7485,237.2266" style="stroke:#181818;stroke-width:1;"/><line style="stroke:#181818;stroke-width:1;" x1="60.7485" x2="295.7134" y1="237.2266" y2="237.2266"/><text fill="#000000" font-family="sans-serif" font-size="13" lengthAdjust="spacing" textLength="124.7441" x="72.7485" y="232.1606">Postpone succesful</text><line style="stroke:#000000;stroke-width:1;stroke-dasharray:2.0,2.0;" x1="10" x2="521.6064" y1="246.2266" y2="246.2266"/><text fill="#000000" font-family="sans-serif" font-size="11" font-weight="bold" lengthAdjust="spacing" textLength="127.354" x="15" y="256.437">[Already postponed]</text><polygon fill="#181818" points="66.7485,277.1641,56.7485,281.1641,66.7485,285.1641,62.7485,281.1641" style="stroke:#181818;stroke-width:1;"/><line style="stroke:#181818;stroke-width:1;" x1="60.7485" x2="295.7134" y1="281.1641" y2="281.1641"/><text fill="#000000" font-family="sans-serif" font-size="13" lengthAdjust="spacing" textLength="150.1665" x="72.7485" y="276.0981">Postpone not succesful</text><!--SRC=[RP112i8m44NtESL0rrwW2q4KYY0IUeFOJ6reJ6ep5Nfx4pKr9SqYY-6___zCZSy97S5k3mT-BiC7zMz65WRhQB06OH3p0mqnqP1w2S8WP2oeFNaI96x28PHmxB3fGRKBAVz8bB55_qtrsDLIGaZC6IOq5PNL4egBkdTKZOZcmysOik1VNel7FPG16Is3D0yAqxmWNmLi5Ko2um6JN3Sr3RfsqWorzosuCZqSz8X2pjljDqoCtpOnCgjBUUmD]--></g></svg>