<svg xmlns="http://www.w3.org/2000/svg" xmlns:xlink="http://www.w3.org/1999/xlink" contentStyleType="text/css" data-diagram-type="SEQUENCE" height="487px" preserveAspectRatio="none" style="width:623px;height:487px;background:#FFFFFF;" version="1.1" viewBox="0 0 623 487" width="623px" zoomAndPan="magnify"><defs/><g><rect fill="#FFFFFF" height="395.5313" style="stroke:#181818;stroke-width:1;" width="10" x="379.4785" y="46.2969"/><rect fill="#FFFFFF" height="29.1328" style="stroke:#181818;stroke-width:1;" width="10" x="561.3745" y="120.6953"/><rect fill="#FFFFFF" height="29.1328" style="stroke:#181818;stroke-width:1;" width="10" x="561.3745" y="178.9609"/><rect fill="#FFFFFF" height="29.1328" style="stroke:#181818;stroke-width:1;" width="10" x="561.3745" y="310.2969"/><rect fill="#FFFFFF" height="29.1328" style="stroke:#181818;stroke-width:1;" width="10" x="561.3745" y="368.5625"/><rect fill="none" height="381.5313" style="stroke:#000000;stroke-width:1.5;" width="606.7749" x="10" y="53.2969"/><line style="stroke:#181818;stroke-width:0.5;stroke-dasharray:5.0,5.0;" x1="55" x2="55" y1="36.2969" y2="451.8281"/><line style="stroke:#181818;stroke-width:0.5;stroke-dasharray:5.0,5.0;" x1="384.4043" x2="384.4043" y1="36.2969" y2="451.8281"/><line style="stroke:#181818;stroke-width:0.5;stroke-dasharray:5.0,5.0;" x1="565.9741" x2="565.9741" y1="36.2969" y2="451.8281"/><rect fill="#E2E2F0" height="30.2969" rx="2.5" ry="2.5" style="stroke:#181818;stroke-width:0.5;" width="71.4971" x="20" y="5"/><text fill="#000000" font-family="sans-serif" font-size="14" lengthAdjust="spacing" textLength="57.4971" x="27" y="24.9951">Request</text><rect fill="#E2E2F0" height="30.2969" rx="2.5" ry="2.5" style="stroke:#181818;stroke-width:0.5;" width="71.4971" x="20" y="450.8281"/><text fill="#000000" font-family="sans-serif" font-size="14" lengthAdjust="spacing" textLength="57.4971" x="27" y="470.8232">Request</text><rect fill="#E2E2F0" height="30.2969" rx="2.5" ry="2.5" style="stroke:#181818;stroke-width:0.5;" width="36.1484" x="366.4043" y="5"/><text fill="#000000" font-family="sans-serif" font-size="14" lengthAdjust="spacing" textLength="22.1484" x="373.4043" y="24.9951">API</text><rect fill="#E2E2F0" height="30.2969" rx="2.5" ry="2.5" style="stroke:#181818;stroke-width:0.5;" width="36.1484" x="366.4043" y="450.8281"/><text fill="#000000" font-family="sans-serif" font-size="14" lengthAdjust="spacing" textLength="22.1484" x="373.4043" y="470.8232">API</text><rect fill="#E2E2F0" height="30.2969" rx="2.5" ry="2.5" style="stroke:#181818;stroke-width:0.5;" width="80.8008" x="525.9741" y="5"/><text fill="#000000" font-family="sans-serif" font-size="14" lengthAdjust="spacing" textLength="66.8008" x="532.9741" y="24.9951">Database</text><rect fill="#E2E2F0" height="30.2969" rx="2.5" ry="2.5" style="stroke:#181818;stroke-width:0.5;" width="80.8008" x="525.9741" y="450.8281"/><text fill="#000000" font-family="sans-serif" font-size="14" lengthAdjust="spacing" textLength="66.8008" x="532.9741" y="470.8232">Database</text><rect fill="#FFFFFF" height="395.5313" style="stroke:#181818;stroke-width:1;" width="10" x="379.4785" y="46.2969"/><rect fill="#FFFFFF" height="29.1328" style="stroke:#181818;stroke-width:1;" width="10" x="561.3745" y="120.6953"/><rect fill="#FFFFFF" height="29.1328" style="stroke:#181818;stroke-width:1;" width="10" x="561.3745" y="178.9609"/><rect fill="#FFFFFF" height="29.1328" style="stroke:#181818;stroke-width:1;" width="10" x="561.3745" y="310.2969"/><rect fill="#FFFFFF" height="29.1328" style="stroke:#181818;stroke-width:1;" width="10" x="561.3745" y="368.5625"/><path d="M10,53.2969 L79.4893,53.2969 L79.4893,60.4297 L69.4893,70.4297 L10,70.4297 L10,53.2969 " fill="#FFFFFF" style="stroke:#000000;stroke-width:1.5;"/><rect fill="none" height="381.5313" style="stroke:#000000;stroke-width:1.5;" width="606.7749" x="10" y="53.2969"/><text fill="#000000" font-family="sans-serif" font-size="13" font-weight="bold" lengthAdjust="spacing" textLength="24.4893" x="25" y="66.3638">par</text><text fill="#000000" font-family="sans-serif" font-size="11" font-weight="bold" lengthAdjust="spacing" textLength="72.4399" x="94.4893" y="65.5073">[Request 1]</text><polygon fill="#181818" points="367.4785,87.5625,377.4785,91.5625,367.4785,95.5625,371.4785,91.5625" style="stroke:#181818;stroke-width:1;"/><line style="stroke:#181818;stroke-width:1;" x1="55.7485" x2="373.4785" y1="91.5625" y2="91.5625"/><text fill="#000000" font-family="sans-serif" font-size="13" lengthAdjust="spacing" textLength="234.3682" x="62.7485" y="86.4966">API Request to postpone payment 1</text><polygon fill="#181818" points="549.3745,116.6953,559.3745,120.6953,549.3745,124.6953,553.3745,120.6953" style="stroke:#181818;stroke-width:1;"/><line style="stroke:#181818;stroke-width:1;" x1="389.4785" x2="555.3745" y1="120.6953" y2="120.6953"/><text fill="#000000" font-family="sans-serif" font-size="13" lengthAdjust="spacing" textLength="125.2139" x="396.4785" y="115.6294">Check if postponed</text><polygon fill="#181818" points="400.4785,145.8281,390.4785,149.8281,400.4785,153.8281,396.4785,149.8281" style="stroke:#181818;stroke-width:1;"/><line style="stroke:#181818;stroke-width:1;" x1="394.4785" x2="565.3745" y1="149.8281" y2="149.8281"/><text fill="#000000" font-family="sans-serif" font-size="13" lengthAdjust="spacing" textLength="95.6782" x="406.4785" y="144.7622">Not postponed</text><polygon fill="#181818" points="549.3745,174.9609,559.3745,178.9609,549.3745,182.9609,553.3745,178.9609" style="stroke:#181818;stroke-width:1;"/><line style="stroke:#181818;stroke-width:1;" x1="389.4785" x2="555.3745" y1="178.9609" y2="178.9609"/><text fill="#000000" font-family="sans-serif" font-size="13" lengthAdjust="spacing" textLength="152.896" x="396.4785" y="173.895">Postpone in database 1</text><polygon fill="#181818" points="400.4785,204.0938,390.4785,208.0938,400.4785,212.0938,396.4785,208.0938" style="stroke:#181818;stroke-width:1;"/><line style="stroke:#181818;stroke-width:1;" x1="394.4785" x2="565.3745" y1="208.0938" y2="208.0938"/><text fill="#000000" font-family="sans-serif" font-size="13" lengthAdjust="spacing" textLength="68.3579" x="406.4785" y="203.0278">Postponed</text><polygon fill="#181818" points="66.7485,233.2266,56.7485,237.2266,66.7485,241.2266,62.7485,237.2266" style="stroke:#181818;stroke-width:1;"/><line style="stroke:#181818;stroke-width:1;" x1="60.7485" x2="378.4785" y1="237.2266" y2="237.2266"/><text fill="#000000" font-family="sans-serif" font-size="13" lengthAdjust="spacing" textLength="299.73" x="72.7485" y="232.1606">Postpone Succesful - Total Postponed 30 days</text><line style="stroke:#000000;stroke-width:1;stroke-dasharray:2.0,2.0;" x1="10" x2="616.7749" y1="246.2266" y2="246.2266"/><text fill="#000000" font-family="sans-serif" font-size="11" font-weight="bold" lengthAdjust="spacing" textLength="72.4399" x="15" y="256.437">[Request 2]</text><polygon fill="#181818" points="367.4785,277.1641,377.4785,281.1641,367.4785,285.1641,371.4785,281.1641" style="stroke:#181818;stroke-width:1;"/><line style="stroke:#181818;stroke-width:1;" x1="55.7485" x2="373.4785" y1="281.1641" y2="281.1641"/><text fill="#000000" font-family="sans-serif" font-size="13" lengthAdjust="spacing" textLength="234.3682" x="62.7485" y="276.0981">API Request to postpone payment 2</text><polygon fill="#181818" points="549.3745,306.2969,559.3745,310.2969,549.3745,314.2969,553.3745,310.2969" style="stroke:#181818;stroke-width:1;"/><line style="stroke:#181818;stroke-width:1;" x1="389.4785" x2="555.3745" y1="310.2969" y2="310.2969"/><text fill="#000000" font-family="sans-serif" font-size="13" lengthAdjust="spacing" textLength="125.2139" x="396.4785" y="305.231">Check if postponed</text><polygon fill="#181818" points="400.4785,335.4297,390.4785,339.4297,400.4785,343.4297,396.4785,339.4297" style="stroke:#181818;stroke-width:1;"/><line style="stroke:#181818;stroke-width:1;" x1="394.4785" x2="565.3745" y1="339.4297" y2="339.4297"/><text fill="#000000" font-family="sans-serif" font-size="13" lengthAdjust="spacing" textLength="95.6782" x="406.4785" y="334.3638">Not postponed</text><polygon fill="#181818" points="549.3745,364.5625,559.3745,368.5625,549.3745,372.5625,553.3745,368.5625" style="stroke:#181818;stroke-width:1;"/><line style="stroke:#181818;stroke-width:1;" x1="389.4785" x2="555.3745" y1="368.5625" y2="368.5625"/><text fill="#000000" font-family="sans-serif" font-size="13" lengthAdjust="spacing" textLength="152.896" x="396.4785" y="363.4966">Postpone in database 2</text><polygon fill="#181818" points="400.4785,393.6953,390.4785,397.6953,400.4785,401.6953,396.4785,397.6953" style="stroke:#181818;stroke-width:1;"/><line style="stroke:#181818;stroke-width:1;" x1="394.4785" x2="565.3745" y1="397.6953" y2="397.6953"/><text fill="#000000" font-family="sans-serif" font-size="13" lengthAdjust="spacing" textLength="68.3579" x="406.4785" y="392.6294">Postponed</text><polygon fill="#181818" points="66.7485,422.8281,56.7485,426.8281,66.7485,430.8281,62.7485,426.8281" style="stroke:#181818;stroke-width:1;"/><line style="stroke:#181818;stroke-width:1;" x1="60.7485" x2="378.4785" y1="426.8281" y2="426.8281"/><text fill="#000000" font-family="sans-serif" font-size="13" lengthAdjust="spacing" textLength="299.73" x="72.7485" y="421.7622">Postpone Succesful - Total Postponed 60 days</text><!--SRC=[rL1D2u904BtlhnZeBAH11mz1rALBI0MTftMa9NEtTWpyzwtMgaW7wLGUXFVsVGpFu9sLL0OBXXtTIh8iJ8zR9XiXKB9w8DCBkUV9yQmSV1iW5E0-Zu95hOlhNykn1gCj6rqG6AokvAB3sjGuQwLphP7nX9PYM9r9Na1bhIbjTEqTNjcm7hJ5Myq3OqgVhODYY27nLwe2Ka-7uzjx4QEg_K2zvdqf9Tcip260WsRCkqIOJTrLbHMKssx-wAlvex-OFlgPwUT- -Y8LeXVjqfu0]--></g></svg>