<svg xmlns="http://www.w3.org/2000/svg" xmlns:xlink="http://www.w3.org/1999/xlink" contentStyleType="text/css" data-diagram-type="SEQUENCE" height="487px" preserveAspectRatio="none" style="width:561px;height:487px;background:#FFFFFF;" version="1.1" viewBox="0 0 561 487" width="561px" zoomAndPan="magnify"><defs/><g><rect fill="#FFFFFF" height="380.5313" style="stroke:#181818;stroke-width:1;" width="10" x="314.1167" y="46.2969"/><rect fill="#FFFFFF" height="29.1328" style="stroke:#181818;stroke-width:1;" width="10" x="498.6641" y="120.6953"/><rect fill="#FFFFFF" height="29.1328" style="stroke:#181818;stroke-width:1;" width="10" x="498.6641" y="178.9609"/><rect fill="#FFFFFF" height="29.1328" style="stroke:#181818;stroke-width:1;" width="10" x="498.6641" y="310.2969"/><rect fill="#FFFFFF" height="29.1328" style="stroke:#181818;stroke-width:1;" width="10" x="498.6641" y="368.5625"/><rect fill="none" height="381.5313" style="stroke:#000000;stroke-width:1.5;" width="544.0645" x="10" y="53.2969"/><line style="stroke:#181818;stroke-width:0.5;stroke-dasharray:5.0,5.0;" x1="55" x2="55" y1="36.2969" y2="451.8281"/><line style="stroke:#181818;stroke-width:0.5;stroke-dasharray:5.0,5.0;" x1="319.0425" x2="319.0425" y1="36.2969" y2="451.8281"/><line style="stroke:#181818;stroke-width:0.5;stroke-dasharray:5.0,5.0;" x1="503.2637" x2="503.2637" y1="36.2969" y2="451.8281"/><rect fill="#E2E2F0" height="30.2969" rx="2.5" ry="2.5" style="stroke:#181818;stroke-width:0.5;" width="71.4971" x="20" y="5"/><text fill="#000000" font-family="sans-serif" font-size="14" lengthAdjust="spacing" textLength="57.4971" x="27" y="24.9951">Request</text><rect fill="#E2E2F0" height="30.2969" rx="2.5" ry="2.5" style="stroke:#181818;stroke-width:0.5;" width="71.4971" x="20" y="450.8281"/><text fill="#000000" font-family="sans-serif" font-size="14" lengthAdjust="spacing" textLength="57.4971" x="27" y="470.8232">Request</text><rect fill="#E2E2F0" height="30.2969" rx="2.5" ry="2.5" style="stroke:#181818;stroke-width:0.5;" width="36.1484" x="301.0425" y="5"/><text fill="#000000" font-family="sans-serif" font-size="14" lengthAdjust="spacing" textLength="22.1484" x="308.0425" y="24.9951">API</text><rect fill="#E2E2F0" height="30.2969" rx="2.5" ry="2.5" style="stroke:#181818;stroke-width:0.5;" width="36.1484" x="301.0425" y="450.8281"/><text fill="#000000" font-family="sans-serif" font-size="14" lengthAdjust="spacing" textLength="22.1484" x="308.0425" y="470.8232">API</text><rect fill="#E2E2F0" height="30.2969" rx="2.5" ry="2.5" style="stroke:#181818;stroke-width:0.5;" width="80.8008" x="463.2637" y="5"/><text fill="#000000" font-family="sans-serif" font-size="14" lengthAdjust="spacing" textLength="66.8008" x="470.2637" y="24.9951">Database</text><rect fill="#E2E2F0" height="30.2969" rx="2.5" ry="2.5" style="stroke:#181818;stroke-width:0.5;" width="80.8008" x="463.2637" y="450.8281"/><text fill="#000000" font-family="sans-serif" font-size="14" lengthAdjust="spacing" textLength="66.8008" x="470.2637" y="470.8232">Database</text><rect fill="#FFFFFF" height="380.5313" style="stroke:#181818;stroke-width:1;" width="10" x="314.1167" y="46.2969"/><rect fill="#FFFFFF" height="29.1328" style="stroke:#181818;stroke-width:1;" width="10" x="498.6641" y="120.6953"/><rect fill="#FFFFFF" height="29.1328" style="stroke:#181818;stroke-width:1;" width="10" x="498.6641" y="178.9609"/><rect fill="#FFFFFF" height="29.1328" style="stroke:#181818;stroke-width:1;" width="10" x="498.6641" y="310.2969"/><rect fill="#FFFFFF" height="29.1328" style="stroke:#181818;stroke-width:1;" width="10" x="498.6641" y="368.5625"/><path d="M10,53.2969 L79.4893,53.2969 L79.4893,60.4297 L69.4893,70.4297 L10,70.4297 L10,53.2969 " fill="#FFFFFF" style="stroke:#000000;stroke-width:1.5;"/><rect fill="none" height="381.5313" style="stroke:#000000;stroke-width:1.5;" width="544.0645" x="10" y="53.2969"/><text fill="#000000" font-family="sans-serif" font-size="13" font-weight="bold" lengthAdjust="spacing" textLength="24.4893" x="25" y="66.3638">par</text><text fill="#000000" font-family="sans-serif" font-size="11" font-weight="bold" lengthAdjust="spacing" textLength="72.4399" x="94.4893" y="65.5073">[Request 1]</text><polygon fill="#181818" points="302.1167,87.5625,312.1167,91.5625,302.1167,95.5625,306.1167,91.5625" style="stroke:#181818;stroke-width:1;"/><line style="stroke:#181818;stroke-width:1;" x1="55.7485" x2="308.1167" y1="91.5625" y2="91.5625"/><text fill="#000000" font-family="sans-serif" font-size="13" lengthAdjust="spacing" textLength="234.3682" x="62.7485" y="86.4966">API Request to postpone payment 1</text><polygon fill="#181818" points="486.6641,116.6953,496.6641,120.6953,486.6641,124.6953,490.6641,120.6953" style="stroke:#181818;stroke-width:1;"/><line style="stroke:#181818;stroke-width:1;" x1="324.1167" x2="492.6641" y1="120.6953" y2="120.6953"/><text fill="#000000" font-family="sans-serif" font-size="13" lengthAdjust="spacing" textLength="125.2139" x="331.1167" y="115.6294">Check if postponed</text><polygon fill="#181818" points="335.1167,145.8281,325.1167,149.8281,335.1167,153.8281,331.1167,149.8281" style="stroke:#181818;stroke-width:1;"/><line style="stroke:#181818;stroke-width:1;" x1="329.1167" x2="502.6641" y1="149.8281" y2="149.8281"/><text fill="#000000" font-family="sans-serif" font-size="13" lengthAdjust="spacing" textLength="95.6782" x="341.1167" y="144.7622">Not postponed</text><polygon fill="#181818" points="486.6641,174.9609,496.6641,178.9609,486.6641,182.9609,490.6641,178.9609" style="stroke:#181818;stroke-width:1;"/><line style="stroke:#181818;stroke-width:1;" x1="324.1167" x2="492.6641" y1="178.9609" y2="178.9609"/><text fill="#000000" font-family="sans-serif" font-size="13" lengthAdjust="spacing" textLength="152.896" x="331.1167" y="173.895">Postpone in database 1</text><polygon fill="#181818" points="335.1167,204.0938,325.1167,208.0938,335.1167,212.0938,331.1167,208.0938" style="stroke:#181818;stroke-width:1;"/><line style="stroke:#181818;stroke-width:1;" x1="329.1167" x2="502.6641" y1="208.0938" y2="208.0938"/><text fill="#000000" font-family="sans-serif" font-size="13" lengthAdjust="spacing" textLength="68.3579" x="341.1167" y="203.0278">Postponed</text><polygon fill="#181818" points="66.7485,233.2266,56.7485,237.2266,66.7485,241.2266,62.7485,237.2266" style="stroke:#181818;stroke-width:1;"/><line style="stroke:#181818;stroke-width:1;" x1="60.7485" x2="313.1167" y1="237.2266" y2="237.2266"/><text fill="#000000" font-family="sans-serif" font-size="13" lengthAdjust="spacing" textLength="126.2231" x="72.7485" y="232.1606">Postpone Succesful</text><line style="stroke:#000000;stroke-width:1;stroke-dasharray:2.0,2.0;" x1="10" x2="554.0645" y1="246.2266" y2="246.2266"/><text fill="#000000" font-family="sans-serif" font-size="11" font-weight="bold" lengthAdjust="spacing" textLength="72.4399" x="15" y="256.437">[Request 2]</text><polygon fill="#181818" points="302.1167,277.1641,312.1167,281.1641,302.1167,285.1641,306.1167,281.1641" style="stroke:#181818;stroke-width:1;"/><line style="stroke:#181818;stroke-width:1;" x1="55.7485" x2="308.1167" y1="281.1641" y2="281.1641"/><text fill="#000000" font-family="sans-serif" font-size="13" lengthAdjust="spacing" textLength="234.3682" x="62.7485" y="276.0981">API Request to postpone payment 2</text><polygon fill="#181818" points="486.6641,306.2969,496.6641,310.2969,486.6641,314.2969,490.6641,310.2969" style="stroke:#181818;stroke-width:1;"/><line style="stroke:#181818;stroke-width:1;" x1="324.1167" x2="492.6641" y1="310.2969" y2="310.2969"/><text fill="#000000" font-family="sans-serif" font-size="13" lengthAdjust="spacing" textLength="125.2139" x="331.1167" y="305.231">Check if postponed</text><polygon fill="#181818" points="335.1167,335.4297,325.1167,339.4297,335.1167,343.4297,331.1167,339.4297" style="stroke:#181818;stroke-width:1;"/><line style="stroke:#181818;stroke-width:1;" x1="329.1167" x2="502.6641" y1="339.4297" y2="339.4297"/><text fill="#000000" font-family="sans-serif" font-size="13" lengthAdjust="spacing" textLength="95.6782" x="341.1167" y="334.3638">Not postponed</text><polygon fill="#181818" points="486.6641,364.5625,496.6641,368.5625,486.6641,372.5625,490.6641,368.5625" style="stroke:#181818;stroke-width:1;"/><line style="stroke:#181818;stroke-width:1;" x1="324.1167" x2="492.6641" y1="368.5625" y2="368.5625"/><text fill="#000000" font-family="sans-serif" font-size="13" lengthAdjust="spacing" textLength="152.896" x="331.1167" y="363.4966">Postpone in database 2</text><polygon fill="#181818" points="335.1167,393.6953,325.1167,397.6953,335.1167,401.6953,331.1167,397.6953" style="stroke:#181818;stroke-width:1;"/><line style="stroke:#181818;stroke-width:1;stroke-dasharray:2.0,2.0;" x1="329.1167" x2="502.6641" y1="397.6953" y2="397.6953"/><text fill="#000000" font-family="sans-serif" font-size="13" lengthAdjust="spacing" textLength="150.5474" x="341.1167" y="392.6294">Concurrency exception</text><line style="stroke:#A80036;stroke-width:2;" x1="494.6641" x2="512.6641" y1="388.6953" y2="406.6953"/><line style="stroke:#A80036;stroke-width:2;" x1="494.6641" x2="512.6641" y1="406.6953" y2="388.6953"/><polygon fill="#181818" points="66.7485,422.8281,56.7485,426.8281,66.7485,430.8281,62.7485,426.8281" style="stroke:#181818;stroke-width:1;"/><line style="stroke:#181818;stroke-width:1;stroke-dasharray:2.0,2.0;" x1="60.7485" x2="318.1167" y1="426.8281" y2="426.8281"/><text fill="#000000" font-family="sans-serif" font-size="13" lengthAdjust="spacing" textLength="96.2241" x="72.7485" y="421.7622">Postpone error</text><line style="stroke:#A80036;stroke-width:2;" x1="310.1167" x2="328.1167" y1="417.8281" y2="435.8281"/><line style="stroke:#A80036;stroke-width:2;" x1="310.1167" x2="328.1167" y1="435.8281" y2="417.8281"/><!--SRC=[rLAn2i8m5Dpp5G-S7TgnWo1rSH7HmJccJnhK92QlOl_Uf9hOYaXniqFWBk_k7fSQRaaAQRWYsE2bGKVCzBZvUiaO5oIldF21_FLaLqiFdmB86FWlekaip1NXI1nfCDgHqGh1yFQCtZeBeauP9hrgmOdlkSC2oXh54UGXYQfkBkqH9pisWXIyqlGchF2pz2qO2bZ7BQM2AjBP-FIUnQZeM50lUTi8WUxGd1YUtAla_AUIyxyeE1-LdXekjHADjQX42tWJQ4XgzTp3aTNjqE7hSf_V0AtLTk0OVdrK5MCzDy_T0G00]--></g></svg>