<svg xmlns="http://www.w3.org/2000/svg" xmlns:xlink="http://www.w3.org/1999/xlink" contentStyleType="text/css" data-diagram-type="SEQUENCE" height="355px" preserveAspectRatio="none" style="width:469px;height:355px;background:#FFFFFF;" version="1.1" viewBox="0 0 469 355" width="469px" zoomAndPan="magnify"><defs/><g><rect fill="#FFFFFF" height="265.1953" style="stroke:#181818;stroke-width:1;" width="10" x="62.5645" y="46.2969"/><rect fill="#FFFFFF" height="29.1328" style="stroke:#181818;stroke-width:1;" width="10" x="296.9219" y="91.5625"/><rect fill="#FFFFFF" height="29.1328" style="stroke:#181818;stroke-width:1;" width="10" x="296.9219" y="208.0938"/><rect fill="#FFFFFF" height="29.1328" style="stroke:#181818;stroke-width:1;" width="10" x="296.9219" y="266.3594"/><rect fill="#FFFFFF" height="29.1328" style="stroke:#181818;stroke-width:1;" width="10" x="397.7749" y="149.8281"/><rect fill="none" height="250.1953" style="stroke:#000000;stroke-width:1.5;" width="453.2275" x="10" y="53.2969"/><line style="stroke:#181818;stroke-width:0.5;stroke-dasharray:5.0,5.0;" x1="67" x2="67" y1="36.2969" y2="320.4922"/><line style="stroke:#181818;stroke-width:0.5;stroke-dasharray:5.0,5.0;" x1="301.5215" x2="301.5215" y1="36.2969" y2="320.4922"/><line style="stroke:#181818;stroke-width:0.5;stroke-dasharray:5.0,5.0;" x1="402.3223" x2="402.3223" y1="36.2969" y2="320.4922"/><rect fill="#E2E2F0" height="30.2969" rx="2.5" ry="2.5" style="stroke:#181818;stroke-width:0.5;" width="95.1289" x="20" y="5"/><text fill="#000000" font-family="sans-serif" font-size="14" lengthAdjust="spacing" textLength="81.1289" x="27" y="24.9951">JobInstance</text><rect fill="#E2E2F0" height="30.2969" rx="2.5" ry="2.5" style="stroke:#181818;stroke-width:0.5;" width="95.1289" x="20" y="319.4922"/><text fill="#000000" font-family="sans-serif" font-size="14" lengthAdjust="spacing" textLength="81.1289" x="27" y="339.4873">JobInstance</text><rect fill="#E2E2F0" height="30.2969" rx="2.5" ry="2.5" style="stroke:#181818;stroke-width:0.5;" width="80.8008" x="261.5215" y="5"/><text fill="#000000" font-family="sans-serif" font-size="14" lengthAdjust="spacing" textLength="66.8008" x="268.5215" y="24.9951">Database</text><rect fill="#E2E2F0" height="30.2969" rx="2.5" ry="2.5" style="stroke:#181818;stroke-width:0.5;" width="80.8008" x="261.5215" y="319.4922"/><text fill="#000000" font-family="sans-serif" font-size="14" lengthAdjust="spacing" textLength="66.8008" x="268.5215" y="339.4873">Database</text><rect fill="#E2E2F0" height="30.2969" rx="2.5" ry="2.5" style="stroke:#181818;stroke-width:0.5;" width="100.9053" x="352.3223" y="5"/><text fill="#000000" font-family="sans-serif" font-size="14" lengthAdjust="spacing" textLength="86.9053" x="359.3223" y="24.9951">BankService</text><rect fill="#E2E2F0" height="30.2969" rx="2.5" ry="2.5" style="stroke:#181818;stroke-width:0.5;" width="100.9053" x="352.3223" y="319.4922"/><text fill="#000000" font-family="sans-serif" font-size="14" lengthAdjust="spacing" textLength="86.9053" x="359.3223" y="339.4873">BankService</text><rect fill="#FFFFFF" height="265.1953" style="stroke:#181818;stroke-width:1;" width="10" x="62.5645" y="46.2969"/><rect fill="#FFFFFF" height="29.1328" style="stroke:#181818;stroke-width:1;" width="10" x="296.9219" y="91.5625"/><rect fill="#FFFFFF" height="29.1328" style="stroke:#181818;stroke-width:1;" width="10" x="296.9219" y="208.0938"/><rect fill="#FFFFFF" height="29.1328" style="stroke:#181818;stroke-width:1;" width="10" x="296.9219" y="266.3594"/><rect fill="#FFFFFF" height="29.1328" style="stroke:#181818;stroke-width:1;" width="10" x="397.7749" y="149.8281"/><path d="M10,53.2969 L79.4893,53.2969 L79.4893,60.4297 L69.4893,70.4297 L10,70.4297 L10,53.2969 " fill="#EEEEEE" style="stroke:#000000;stroke-width:1.5;"/><rect fill="none" height="250.1953" style="stroke:#000000;stroke-width:1.5;" width="453.2275" x="10" y="53.2969"/><text fill="#000000" font-family="sans-serif" font-size="13" font-weight="bold" lengthAdjust="spacing" textLength="24.4893" x="25" y="66.3638">par</text><text fill="#000000" font-family="sans-serif" font-size="11" font-weight="bold" lengthAdjust="spacing" textLength="158.3452" x="94.4893" y="65.5073">[Single job instance only]</text><polygon fill="#181818" points="284.9219,87.5625,294.9219,91.5625,284.9219,95.5625,288.9219,91.5625" style="stroke:#181818;stroke-width:1;"/><line style="stroke:#181818;stroke-width:1;" x1="72.5645" x2="290.9219" y1="91.5625" y2="91.5625"/><text fill="#000000" font-family="sans-serif" font-size="13" lengthAdjust="spacing" textLength="147.7671" x="79.5645" y="86.4966">Get payment message</text><polygon fill="#181818" points="83.5645,116.6953,73.5645,120.6953,83.5645,124.6953,79.5645,120.6953" style="stroke:#181818;stroke-width:1;"/><line style="stroke:#181818;stroke-width:1;" x1="77.5645" x2="300.9219" y1="120.6953" y2="120.6953"/><text fill="#000000" font-family="sans-serif" font-size="13" lengthAdjust="spacing" textLength="52.2095" x="89.5645" y="115.6294">Fetched</text><polygon fill="#181818" points="385.7749,145.8281,395.7749,149.8281,385.7749,153.8281,389.7749,149.8281" style="stroke:#181818;stroke-width:1;"/><line style="stroke:#181818;stroke-width:1;" x1="72.5645" x2="391.7749" y1="149.8281" y2="149.8281"/><text fill="#000000" font-family="sans-serif" font-size="13" lengthAdjust="spacing" textLength="170.4727" x="79.5645" y="144.7622">Payment - money transfer</text><polygon fill="#181818" points="83.5645,174.9609,73.5645,178.9609,83.5645,182.9609,79.5645,178.9609" style="stroke:#181818;stroke-width:1;"/><line style="stroke:#181818;stroke-width:1;" x1="77.5645" x2="401.7749" y1="178.9609" y2="178.9609"/><text fill="#000000" font-family="sans-serif" font-size="13" lengthAdjust="spacing" textLength="114.8228" x="89.5645" y="173.895">Money transfered</text><polygon fill="#181818" points="284.9219,204.0938,294.9219,208.0938,284.9219,212.0938,288.9219,208.0938" style="stroke:#181818;stroke-width:1;"/><line style="stroke:#181818;stroke-width:1;" x1="72.5645" x2="290.9219" y1="208.0938" y2="208.0938"/><text fill="#000000" font-family="sans-serif" font-size="13" lengthAdjust="spacing" textLength="111.8711" x="79.5645" y="203.0278">Process payment</text><polygon fill="#181818" points="83.5645,233.2266,73.5645,237.2266,83.5645,241.2266,79.5645,237.2266" style="stroke:#181818;stroke-width:1;"/><line style="stroke:#181818;stroke-width:1;" x1="77.5645" x2="300.9219" y1="237.2266" y2="237.2266"/><text fill="#000000" font-family="sans-serif" font-size="13" lengthAdjust="spacing" textLength="66.0791" x="89.5645" y="232.1606">Processed</text><polygon fill="#181818" points="284.9219,262.3594,294.9219,266.3594,284.9219,270.3594,288.9219,266.3594" style="stroke:#181818;stroke-width:1;"/><line style="stroke:#181818;stroke-width:1;" x1="72.5645" x2="290.9219" y1="266.3594" y2="266.3594"/><text fill="#000000" font-family="sans-serif" font-size="13" lengthAdjust="spacing" textLength="200.3574" x="79.5645" y="261.2935">Marked message as processed</text><polygon fill="#181818" points="83.5645,291.4922,73.5645,295.4922,83.5645,299.4922,79.5645,295.4922" style="stroke:#181818;stroke-width:1;"/><line style="stroke:#181818;stroke-width:1;" x1="77.5645" x2="300.9219" y1="295.4922" y2="295.4922"/><text fill="#000000" font-family="sans-serif" font-size="13" lengthAdjust="spacing" textLength="200.3574" x="89.5645" y="290.4263">Message marked as processed</text><!--SRC=[bP113e8m44NtFSLSW0kmS66CHXCI4aumj2CYT4hQXeJRYv5A4KraDqddlpVzA7tTeoUucFBCpYDB4g932qNDLKjmDoNKqmCORWSXebL8Td10ZoKwIk547ZeSDB47JSvXHGA38Ao9C3opCIg58tbv8oKKhLEVrZroKv3jQpcAyqcQW3PC0tYBxAvaPtkqBg9vVKEs02oFYI6_MyYjaUFdGnER6fYoVtOmEpEq3QbGEk1eVvEs-BC9e5-y1UVhHSJg0G00]--></g></svg>