<svg xmlns="http://www.w3.org/2000/svg" xmlns:xlink="http://www.w3.org/1999/xlink" contentStyleType="text/css" data-diagram-type="SEQUENCE" height="442px" preserveAspectRatio="none" style="width:662px;height:442px;background:#FFFFFF;" version="1.1" viewBox="0 0 662 442" width="662px" zoomAndPan="magnify"><defs/><g><rect fill="#FFFFFF" height="330.1328" style="stroke:#181818;stroke-width:1;" width="10" x="296.7134" y="67.4297"/><rect fill="#FFFFFF" height="29.1328" style="stroke:#181818;stroke-width:1;" width="10" x="466.2061" y="120.6953"/><rect fill="#FFFFFF" height="29.1328" style="stroke:#181818;stroke-width:1;" width="10" x="466.2061" y="222.0938"/><rect fill="#FFFFFF" height="29.1328" style="stroke:#181818;stroke-width:1;" width="10" x="466.2061" y="324.2969"/><rect fill="#FFFFFF" height="14" style="stroke:#181818;stroke-width:1;" width="10" x="578.6426" y="178.9609"/><rect fill="#90EE90" height="308.1328" style="stroke:#000000;stroke-width:1.5;" width="645.6787" x="10" y="82.4297"/><rect fill="#FFC0CB" height="102.2031" style="stroke:none;stroke-width:1;" width="645.6787" x="10" y="288.3594"/><line style="stroke:#181818;stroke-width:0.5;stroke-dasharray:5.0,5.0;" x1="55" x2="55" y1="36.2969" y2="407.5625"/><line style="stroke:#181818;stroke-width:0.5;stroke-dasharray:5.0,5.0;" x1="301.6392" x2="301.6392" y1="36.2969" y2="407.5625"/><line style="stroke:#181818;stroke-width:0.5;stroke-dasharray:5.0,5.0;" x1="470.8057" x2="470.8057" y1="36.2969" y2="407.5625"/><line style="stroke:#181818;stroke-width:0.5;stroke-dasharray:5.0,5.0;" x1="583.6064" x2="583.6064" y1="36.2969" y2="407.5625"/><rect fill="#E2E2F0" height="30.2969" rx="2.5" ry="2.5" style="stroke:#181818;stroke-width:0.5;" width="71.4971" x="20" y="5"/><text fill="#000000" font-family="sans-serif" font-size="14" lengthAdjust="spacing" textLength="57.4971" x="27" y="24.9951">Request</text><rect fill="#E2E2F0" height="30.2969" rx="2.5" ry="2.5" style="stroke:#181818;stroke-width:0.5;" width="71.4971" x="20" y="406.5625"/><text fill="#000000" font-family="sans-serif" font-size="14" lengthAdjust="spacing" textLength="57.4971" x="27" y="426.5576">Request</text><rect fill="#E2E2F0" height="30.2969" rx="2.5" ry="2.5" style="stroke:#181818;stroke-width:0.5;" width="36.1484" x="283.6392" y="5"/><text fill="#000000" font-family="sans-serif" font-size="14" lengthAdjust="spacing" textLength="22.1484" x="290.6392" y="24.9951">API</text><rect fill="#E2E2F0" height="30.2969" rx="2.5" ry="2.5" style="stroke:#181818;stroke-width:0.5;" width="36.1484" x="283.6392" y="406.5625"/><text fill="#000000" font-family="sans-serif" font-size="14" lengthAdjust="spacing" textLength="22.1484" x="290.6392" y="426.5576">API</text><rect fill="#E2E2F0" height="30.2969" rx="2.5" ry="2.5" style="stroke:#181818;stroke-width:0.5;" width="80.8008" x="430.8057" y="5"/><text fill="#000000" font-family="sans-serif" font-size="14" lengthAdjust="spacing" textLength="66.8008" x="437.8057" y="24.9951">Database</text><rect fill="#E2E2F0" height="30.2969" rx="2.5" ry="2.5" style="stroke:#181818;stroke-width:0.5;" width="80.8008" x="430.8057" y="406.5625"/><text fill="#000000" font-family="sans-serif" font-size="14" lengthAdjust="spacing" textLength="66.8008" x="437.8057" y="426.5576">Database</text><rect fill="#E2E2F0" height="30.2969" rx="2.5" ry="2.5" style="stroke:#181818;stroke-width:0.5;" width="124.0723" x="521.6064" y="5"/><text fill="#000000" font-family="sans-serif" font-size="14" lengthAdjust="spacing" textLength="110.0723" x="528.6064" y="24.9951">ExternalService</text><rect fill="#E2E2F0" height="30.2969" rx="2.5" ry="2.5" style="stroke:#181818;stroke-width:0.5;" width="124.0723" x="521.6064" y="406.5625"/><text fill="#000000" font-family="sans-serif" font-size="14" lengthAdjust="spacing" textLength="110.0723" x="528.6064" y="426.5576">ExternalService</text><rect fill="#FFFFFF" height="330.1328" style="stroke:#181818;stroke-width:1;" width="10" x="296.7134" y="67.4297"/><rect fill="#FFFFFF" height="29.1328" style="stroke:#181818;stroke-width:1;" width="10" x="466.2061" y="120.6953"/><rect fill="#FFFFFF" height="29.1328" style="stroke:#181818;stroke-width:1;" width="10" x="466.2061" y="222.0938"/><rect fill="#FFFFFF" height="29.1328" style="stroke:#181818;stroke-width:1;" width="10" x="466.2061" y="324.2969"/><rect fill="#FFFFFF" height="14" style="stroke:#181818;stroke-width:1;" width="10" x="578.6426" y="178.9609"/><polygon fill="#181818" points="284.7134,63.4297,294.7134,67.4297,284.7134,71.4297,288.7134,67.4297" style="stroke:#181818;stroke-width:1;"/><line style="stroke:#181818;stroke-width:1;" x1="55.7485" x2="290.7134" y1="67.4297" y2="67.4297"/><text fill="#000000" font-family="sans-serif" font-size="13" lengthAdjust="spacing" textLength="221.9648" x="62.7485" y="62.3638">API Request to postpone payment</text><path d="M10,82.4297 L74.4429,82.4297 L74.4429,89.5625 L64.4429,99.5625 L10,99.5625 L10,82.4297 " fill="#FFD700" style="stroke:#000000;stroke-width:1.5;"/><rect fill="none" height="308.1328" style="stroke:#000000;stroke-width:1.5;" width="645.6787" x="10" y="82.4297"/><text fill="#000000" font-family="sans-serif" font-size="13" font-weight="bold" lengthAdjust="spacing" textLength="19.4429" x="25" y="95.4966">alt</text><text fill="#000000" font-family="sans-serif" font-size="11" font-weight="bold" lengthAdjust="spacing" textLength="125.458" x="89.4429" y="94.6401">[Not yet postponed]</text><polygon fill="#181818" points="454.2061,116.6953,464.2061,120.6953,454.2061,124.6953,458.2061,120.6953" style="stroke:#181818;stroke-width:1;"/><line style="stroke:#181818;stroke-width:1;" x1="306.7134" x2="460.2061" y1="120.6953" y2="120.6953"/><text fill="#000000" font-family="sans-serif" font-size="13" lengthAdjust="spacing" textLength="125.2139" x="313.7134" y="115.6294">Check if postponed</text><polygon fill="#181818" points="317.7134,145.8281,307.7134,149.8281,317.7134,153.8281,313.7134,149.8281" style="stroke:#181818;stroke-width:1;"/><line style="stroke:#181818;stroke-width:1;" x1="311.7134" x2="470.2061" y1="149.8281" y2="149.8281"/><text fill="#000000" font-family="sans-serif" font-size="13" lengthAdjust="spacing" textLength="95.6782" x="323.7134" y="144.7622">Not postponed</text><polygon fill="#181818" points="566.6426,174.9609,576.6426,178.9609,566.6426,182.9609,570.6426,178.9609" style="stroke:#181818;stroke-width:1;"/><line style="stroke:#181818;stroke-width:1;" x1="306.7134" x2="572.6426" y1="178.9609" y2="178.9609"/><text fill="#000000" font-family="sans-serif" font-size="13" lengthAdjust="spacing" textLength="184.8691" x="313.7134" y="173.895">Postpone in external service</text><polygon fill="#181818" points="317.7134,188.9609,307.7134,192.9609,317.7134,196.9609,313.7134,192.9609" style="stroke:#181818;stroke-width:1;"/><line style="stroke:#181818;stroke-width:1;" x1="311.7134" x2="582.6426" y1="192.9609" y2="192.9609"/><polygon fill="#181818" points="454.2061,218.0938,464.2061,222.0938,454.2061,226.0938,458.2061,222.0938" style="stroke:#181818;stroke-width:1;"/><line style="stroke:#181818;stroke-width:1;" x1="306.7134" x2="460.2061" y1="222.0938" y2="222.0938"/><text fill="#000000" font-family="sans-serif" font-size="13" lengthAdjust="spacing" textLength="140.4927" x="313.7134" y="217.0278">Postpone in database</text><polygon fill="#181818" points="317.7134,247.2266,307.7134,251.2266,317.7134,255.2266,313.7134,251.2266" style="stroke:#181818;stroke-width:1;"/><line style="stroke:#181818;stroke-width:1;" x1="311.7134" x2="470.2061" y1="251.2266" y2="251.2266"/><text fill="#000000" font-family="sans-serif" font-size="13" lengthAdjust="spacing" textLength="68.3579" x="323.7134" y="246.1606">Postponed</text><polygon fill="#181818" points="66.7485,276.3594,56.7485,280.3594,66.7485,284.3594,62.7485,280.3594" style="stroke:#181818;stroke-width:1;"/><line style="stroke:#181818;stroke-width:1;" x1="60.7485" x2="295.7134" y1="280.3594" y2="280.3594"/><text fill="#000000" font-family="sans-serif" font-size="13" lengthAdjust="spacing" textLength="124.7441" x="72.7485" y="275.2935">Postpone succesful</text><line style="stroke:#000000;stroke-width:1;stroke-dasharray:2.0,2.0;" x1="10" x2="655.6787" y1="289.3594" y2="289.3594"/><text fill="#000000" font-family="sans-serif" font-size="11" font-weight="bold" lengthAdjust="spacing" textLength="127.354" x="15" y="299.5698">[Already postponed]</text><polygon fill="#181818" points="454.2061,320.2969,464.2061,324.2969,454.2061,328.2969,458.2061,324.2969" style="stroke:#181818;stroke-width:1;"/><line style="stroke:#181818;stroke-width:1;" x1="306.7134" x2="460.2061" y1="324.2969" y2="324.2969"/><text fill="#000000" font-family="sans-serif" font-size="13" lengthAdjust="spacing" textLength="125.2139" x="313.7134" y="319.231">Check if postponed</text><polygon fill="#181818" points="317.7134,349.4297,307.7134,353.4297,317.7134,357.4297,313.7134,353.4297" style="stroke:#181818;stroke-width:1;"/><line style="stroke:#181818;stroke-width:1;" x1="311.7134" x2="470.2061" y1="353.4297" y2="353.4297"/><text fill="#000000" font-family="sans-serif" font-size="13" lengthAdjust="spacing" textLength="122.6621" x="323.7134" y="348.3638">Already postponed</text><polygon fill="#181818" points="66.7485,378.5625,56.7485,382.5625,66.7485,386.5625,62.7485,382.5625" style="stroke:#181818;stroke-width:1;"/><line style="stroke:#181818;stroke-width:1;" x1="60.7485" x2="295.7134" y1="382.5625" y2="382.5625"/><text fill="#000000" font-family="sans-serif" font-size="13" lengthAdjust="spacing" textLength="150.1665" x="72.7485" y="377.4966">Postpone not succesful</text><!--SRC=[jL9BJiCm4Dtx52DbpGMwGAe0LKW8HUK4W_rAhHexn9EAt1wxQIBNW805NdZXcVURyHPl0wBGrJMjs_jLlcXxVfD0NOZI1G_gU7o55yLQx945kL4fTj9iWZFKFDYNlMnwmDDZ41eX2zOeIYSJ9v5R5dxc25hHpHxwG7PNDIuAS-lfTS5DHXCyormY3JvZI-sxTq7lsJsXFrgTBRHpFEi9voh5gNnffiAUYZNVPAssKYE_cKPfnPJ9VpkFziTP5CBpYWlTE6YDk1kSWakyJMlzWTQk1vlnltVvjSpVC_Zq9ueStgY28y4-0000]--></g></svg>