<svg xmlns="http://www.w3.org/2000/svg" xmlns:xlink="http://www.w3.org/1999/xlink" contentStyleType="text/css" data-diagram-type="SEQUENCE" height="615px" preserveAspectRatio="none" style="width:685px;height:615px;background:#FFFFFF;" version="1.1" viewBox="0 0 685 615" width="685px" zoomAndPan="magnify"><defs/><g><rect fill="#FFFFFF" height="525.0625" style="stroke:#181818;stroke-width:1;" width="10" x="314.1167" y="46.2969"/><rect fill="#FFBBBB" height="93.3984" style="stroke:#181818;stroke-width:1;" width="10" x="319.1167" y="178.9609"/><rect fill="#FFBBBB" height="93.3984" style="stroke:#181818;stroke-width:1;" width="10" x="319.1167" y="432.8281"/><rect fill="#FFFFFF" height="29.1328" style="stroke:#181818;stroke-width:1;" width="10" x="488.6094" y="120.6953"/><rect fill="#FFFFFF" height="29.1328" style="stroke:#181818;stroke-width:1;" width="10" x="488.6094" y="243.2266"/><rect fill="#FFFFFF" height="29.1328" style="stroke:#181818;stroke-width:1;" width="10" x="488.6094" y="374.5625"/><rect fill="#FFFFFF" height="29.1328" style="stroke:#181818;stroke-width:1;" width="10" x="488.6094" y="497.0938"/><rect fill="#FFFFFF" height="32.1328" style="stroke:#181818;stroke-width:1;" width="10" x="601.0459" y="178.9609"/><rect fill="#FFFFFF" height="32.1328" style="stroke:#181818;stroke-width:1;" width="10" x="601.0459" y="432.8281"/><rect fill="none" height="510.0625" style="stroke:#000000;stroke-width:1.5;" width="668.082" x="10" y="53.2969"/><line style="stroke:#181818;stroke-width:0.5;stroke-dasharray:5.0,5.0;" x1="55" x2="55" y1="36.2969" y2="580.3594"/><line style="stroke:#181818;stroke-width:0.5;stroke-dasharray:5.0,5.0;" x1="319.0425" x2="319.0425" y1="36.2969" y2="580.3594"/><line style="stroke:#181818;stroke-width:0.5;stroke-dasharray:5.0,5.0;" x1="493.209" x2="493.209" y1="36.2969" y2="580.3594"/><line style="stroke:#181818;stroke-width:0.5;stroke-dasharray:5.0,5.0;" x1="606.0098" x2="606.0098" y1="36.2969" y2="580.3594"/><rect fill="#E2E2F0" height="30.2969" rx="2.5" ry="2.5" style="stroke:#181818;stroke-width:0.5;" width="71.4971" x="20" y="5"/><text fill="#000000" font-family="sans-serif" font-size="14" lengthAdjust="spacing" textLength="57.4971" x="27" y="24.9951">Request</text><rect fill="#E2E2F0" height="30.2969" rx="2.5" ry="2.5" style="stroke:#181818;stroke-width:0.5;" width="71.4971" x="20" y="579.3594"/><text fill="#000000" font-family="sans-serif" font-size="14" lengthAdjust="spacing" textLength="57.4971" x="27" y="599.3545">Request</text><rect fill="#E2E2F0" height="30.2969" rx="2.5" ry="2.5" style="stroke:#181818;stroke-width:0.5;" width="36.1484" x="301.0425" y="5"/><text fill="#000000" font-family="sans-serif" font-size="14" lengthAdjust="spacing" textLength="22.1484" x="308.0425" y="24.9951">API</text><rect fill="#E2E2F0" height="30.2969" rx="2.5" ry="2.5" style="stroke:#181818;stroke-width:0.5;" width="36.1484" x="301.0425" y="579.3594"/><text fill="#000000" font-family="sans-serif" font-size="14" lengthAdjust="spacing" textLength="22.1484" x="308.0425" y="599.3545">API</text><rect fill="#E2E2F0" height="30.2969" rx="2.5" ry="2.5" style="stroke:#181818;stroke-width:0.5;" width="80.8008" x="453.209" y="5"/><text fill="#000000" font-family="sans-serif" font-size="14" lengthAdjust="spacing" textLength="66.8008" x="460.209" y="24.9951">Database</text><rect fill="#E2E2F0" height="30.2969" rx="2.5" ry="2.5" style="stroke:#181818;stroke-width:0.5;" width="80.8008" x="453.209" y="579.3594"/><text fill="#000000" font-family="sans-serif" font-size="14" lengthAdjust="spacing" textLength="66.8008" x="460.209" y="599.3545">Database</text><rect fill="#E2E2F0" height="30.2969" rx="2.5" ry="2.5" style="stroke:#181818;stroke-width:0.5;" width="124.0723" x="544.0098" y="5"/><text fill="#000000" font-family="sans-serif" font-size="14" lengthAdjust="spacing" textLength="110.0723" x="551.0098" y="24.9951">ExternalService</text><rect fill="#E2E2F0" height="30.2969" rx="2.5" ry="2.5" style="stroke:#181818;stroke-width:0.5;" width="124.0723" x="544.0098" y="579.3594"/><text fill="#000000" font-family="sans-serif" font-size="14" lengthAdjust="spacing" textLength="110.0723" x="551.0098" y="599.3545">ExternalService</text><rect fill="#FFFFFF" height="525.0625" style="stroke:#181818;stroke-width:1;" width="10" x="314.1167" y="46.2969"/><rect fill="#FFBBBB" height="93.3984" style="stroke:#181818;stroke-width:1;" width="10" x="319.1167" y="178.9609"/><rect fill="#FFBBBB" height="93.3984" style="stroke:#181818;stroke-width:1;" width="10" x="319.1167" y="432.8281"/><rect fill="#FFFFFF" height="29.1328" style="stroke:#181818;stroke-width:1;" width="10" x="488.6094" y="120.6953"/><rect fill="#FFFFFF" height="29.1328" style="stroke:#181818;stroke-width:1;" width="10" x="488.6094" y="243.2266"/><rect fill="#FFFFFF" height="29.1328" style="stroke:#181818;stroke-width:1;" width="10" x="488.6094" y="374.5625"/><rect fill="#FFFFFF" height="29.1328" style="stroke:#181818;stroke-width:1;" width="10" x="488.6094" y="497.0938"/><rect fill="#FFFFFF" height="32.1328" style="stroke:#181818;stroke-width:1;" width="10" x="601.0459" y="178.9609"/><rect fill="#FFFFFF" height="32.1328" style="stroke:#181818;stroke-width:1;" width="10" x="601.0459" y="432.8281"/><path d="M10,53.2969 L79.4893,53.2969 L79.4893,60.4297 L69.4893,70.4297 L10,70.4297 L10,53.2969 " fill="#FFFFFF" style="stroke:#000000;stroke-width:1.5;"/><rect fill="none" height="510.0625" style="stroke:#000000;stroke-width:1.5;" width="668.082" x="10" y="53.2969"/><text fill="#000000" font-family="sans-serif" font-size="13" font-weight="bold" lengthAdjust="spacing" textLength="24.4893" x="25" y="66.3638">par</text><text fill="#000000" font-family="sans-serif" font-size="11" font-weight="bold" lengthAdjust="spacing" textLength="72.4399" x="94.4893" y="65.5073">[Request 1]</text><polygon fill="#181818" points="302.1167,87.5625,312.1167,91.5625,302.1167,95.5625,306.1167,91.5625" style="stroke:#181818;stroke-width:1;"/><line style="stroke:#181818;stroke-width:1;" x1="55.7485" x2="308.1167" y1="91.5625" y2="91.5625"/><text fill="#000000" font-family="sans-serif" font-size="13" lengthAdjust="spacing" textLength="234.3682" x="62.7485" y="86.4966">API Request to postpone payment 1</text><polygon fill="#181818" points="476.6094,116.6953,486.6094,120.6953,476.6094,124.6953,480.6094,120.6953" style="stroke:#181818;stroke-width:1;"/><line style="stroke:#181818;stroke-width:1;" x1="324.1167" x2="482.6094" y1="120.6953" y2="120.6953"/><text fill="#000000" font-family="sans-serif" font-size="13" lengthAdjust="spacing" textLength="125.2139" x="331.1167" y="115.6294">Check if postponed</text><polygon fill="#181818" points="335.1167,145.8281,325.1167,149.8281,335.1167,153.8281,331.1167,149.8281" style="stroke:#181818;stroke-width:1;"/><line style="stroke:#181818;stroke-width:1;" x1="329.1167" x2="492.6094" y1="149.8281" y2="149.8281"/><text fill="#000000" font-family="sans-serif" font-size="13" lengthAdjust="spacing" textLength="95.6782" x="341.1167" y="144.7622">Not postponed</text><polygon fill="#181818" points="589.0459,174.9609,599.0459,178.9609,589.0459,182.9609,593.0459,178.9609" style="stroke:#181818;stroke-width:1;"/><line style="stroke:#181818;stroke-width:1;" x1="329.1167" x2="595.0459" y1="178.9609" y2="178.9609"/><text fill="#000000" font-family="sans-serif" font-size="13" lengthAdjust="spacing" textLength="184.8691" x="336.1167" y="173.895">Postpone in external service</text><polygon fill="#181818" points="340.1167,207.0938,330.1167,211.0938,340.1167,215.0938,336.1167,211.0938" style="stroke:#181818;stroke-width:1;"/><line style="stroke:#181818;stroke-width:1;" x1="334.1167" x2="605.0459" y1="211.0938" y2="211.0938"/><text fill="#000000" font-family="sans-serif" font-size="13" lengthAdjust="spacing" textLength="68.3579" x="346.1167" y="206.0278">Postponed</text><path d="M190,191.9609 L190,216.9609 L308,216.9609 L308,201.9609 L298,191.9609 L190,191.9609 " fill="#FFBBBB" style="stroke:#181818;stroke-width:0.5;"/><path d="M298,191.9609 L298,201.9609 L308,201.9609 L298,191.9609 " fill="#FFBBBB" style="stroke:#181818;stroke-width:0.5;"/><text fill="#000000" font-family="sans-serif" font-size="13" lengthAdjust="spacing" textLength="97.8999" x="196" y="209.0278">Critical Section</text><polygon fill="#181818" points="476.6094,239.2266,486.6094,243.2266,476.6094,247.2266,480.6094,243.2266" style="stroke:#181818;stroke-width:1;"/><line style="stroke:#181818;stroke-width:1;" x1="329.1167" x2="482.6094" y1="243.2266" y2="243.2266"/><text fill="#000000" font-family="sans-serif" font-size="13" lengthAdjust="spacing" textLength="140.4927" x="336.1167" y="238.1606">Postpone in database</text><polygon fill="#181818" points="335.1167,268.3594,325.1167,272.3594,335.1167,276.3594,331.1167,272.3594" style="stroke:#181818;stroke-width:1;"/><line style="stroke:#181818;stroke-width:1;" x1="329.1167" x2="492.6094" y1="272.3594" y2="272.3594"/><text fill="#000000" font-family="sans-serif" font-size="13" lengthAdjust="spacing" textLength="68.3579" x="341.1167" y="267.2935">Postponed</text><polygon fill="#181818" points="66.7485,297.4922,56.7485,301.4922,66.7485,305.4922,62.7485,301.4922" style="stroke:#181818;stroke-width:1;"/><line style="stroke:#181818;stroke-width:1;" x1="60.7485" x2="313.1167" y1="301.4922" y2="301.4922"/><text fill="#000000" font-family="sans-serif" font-size="13" lengthAdjust="spacing" textLength="126.2231" x="72.7485" y="296.4263">Postpone Succesful</text><line style="stroke:#000000;stroke-width:1;stroke-dasharray:2.0,2.0;" x1="10" x2="678.082" y1="310.4922" y2="310.4922"/><text fill="#000000" font-family="sans-serif" font-size="11" font-weight="bold" lengthAdjust="spacing" textLength="72.4399" x="15" y="320.7026">[Request 2]</text><polygon fill="#181818" points="302.1167,341.4297,312.1167,345.4297,302.1167,349.4297,306.1167,345.4297" style="stroke:#181818;stroke-width:1;"/><line style="stroke:#181818;stroke-width:1;" x1="55.7485" x2="308.1167" y1="345.4297" y2="345.4297"/><text fill="#000000" font-family="sans-serif" font-size="13" lengthAdjust="spacing" textLength="234.3682" x="62.7485" y="340.3638">API Request to postpone payment 1</text><polygon fill="#181818" points="476.6094,370.5625,486.6094,374.5625,476.6094,378.5625,480.6094,374.5625" style="stroke:#181818;stroke-width:1;"/><line style="stroke:#181818;stroke-width:1;" x1="324.1167" x2="482.6094" y1="374.5625" y2="374.5625"/><text fill="#000000" font-family="sans-serif" font-size="13" lengthAdjust="spacing" textLength="125.2139" x="331.1167" y="369.4966">Check if postponed</text><polygon fill="#181818" points="335.1167,399.6953,325.1167,403.6953,335.1167,407.6953,331.1167,403.6953" style="stroke:#181818;stroke-width:1;"/><line style="stroke:#181818;stroke-width:1;" x1="329.1167" x2="492.6094" y1="403.6953" y2="403.6953"/><text fill="#000000" font-family="sans-serif" font-size="13" lengthAdjust="spacing" textLength="95.6782" x="341.1167" y="398.6294">Not postponed</text><polygon fill="#181818" points="589.0459,428.8281,599.0459,432.8281,589.0459,436.8281,593.0459,432.8281" style="stroke:#181818;stroke-width:1;"/><line style="stroke:#181818;stroke-width:1;" x1="329.1167" x2="595.0459" y1="432.8281" y2="432.8281"/><text fill="#000000" font-family="sans-serif" font-size="13" lengthAdjust="spacing" textLength="184.8691" x="336.1167" y="427.7622">Postpone in external service</text><polygon fill="#181818" points="340.1167,460.9609,330.1167,464.9609,340.1167,468.9609,336.1167,464.9609" style="stroke:#181818;stroke-width:1;"/><line style="stroke:#181818;stroke-width:1;" x1="334.1167" x2="605.0459" y1="464.9609" y2="464.9609"/><text fill="#000000" font-family="sans-serif" font-size="13" lengthAdjust="spacing" textLength="68.3579" x="346.1167" y="459.895">Postponed</text><path d="M190,445.8281 L190,470.8281 L308,470.8281 L308,455.8281 L298,445.8281 L190,445.8281 " fill="#FFBBBB" style="stroke:#181818;stroke-width:0.5;"/><path d="M298,445.8281 L298,455.8281 L308,455.8281 L298,445.8281 " fill="#FFBBBB" style="stroke:#181818;stroke-width:0.5;"/><text fill="#000000" font-family="sans-serif" font-size="13" lengthAdjust="spacing" textLength="97.8999" x="196" y="462.895">Critical Section</text><polygon fill="#181818" points="476.6094,493.0938,486.6094,497.0938,476.6094,501.0938,480.6094,497.0938" style="stroke:#181818;stroke-width:1;"/><line style="stroke:#181818;stroke-width:1;" x1="329.1167" x2="482.6094" y1="497.0938" y2="497.0938"/><text fill="#000000" font-family="sans-serif" font-size="13" lengthAdjust="spacing" textLength="140.4927" x="336.1167" y="492.0278">Postpone in database</text><polygon fill="#181818" points="335.1167,522.2266,325.1167,526.2266,335.1167,530.2266,331.1167,526.2266" style="stroke:#181818;stroke-width:1;"/><line style="stroke:#181818;stroke-width:1;" x1="329.1167" x2="492.6094" y1="526.2266" y2="526.2266"/><text fill="#000000" font-family="sans-serif" font-size="13" lengthAdjust="spacing" textLength="68.3579" x="341.1167" y="521.1606">Postponed</text><polygon fill="#181818" points="66.7485,551.3594,56.7485,555.3594,66.7485,559.3594,62.7485,555.3594" style="stroke:#181818;stroke-width:1;"/><line style="stroke:#181818;stroke-width:1;" x1="60.7485" x2="313.1167" y1="555.3594" y2="555.3594"/><text fill="#000000" font-family="sans-serif" font-size="13" lengthAdjust="spacing" textLength="126.2231" x="72.7485" y="550.2935">Postpone Succesful</text><!--SRC=[xLAnJWCn3Dtz5POwCy1u0n8KAh5K5JSmXyIdHXn9kFWg-7kSzdAN1YG6DeI7A7f-Byzs7DJ0LjkW7ECZlOqK6L0Y5FZDxW6EeD9i3uffGOIsUjfRWIOnNaA-NLmdNfEEESiUWuySl2FHVhoIIuh44FQTOlMi8ZMutfD-GTlDP7FkdvcGBxFPrdCXClHL8Z7vtRyp3KxrBGq7gmaRtENQh4EQiXXFQO2oVLnjDhSI2rYz1lNhfmeB4mDbVRKSd1UqfuvdAvd0Uh3oBL9KIoBq3iWPJ4oeXrXrOtBxFyxmhC9l1rY0nqMOdFCV5yRjg3N5RkpJrAcFovfSmP_Ta_yr-SsQIAMV]--></g></svg>